# xmcd CD database file
#
# Track frame offsets:
#	150
#	17497
#	36270
#	53505
#	66322
#	79165
#	93532
#	108815
#	119960
#	136127
#	151050
#	175077
#	189497
#	207592
#	224557
#	240475
#	255837
#	273592
#	286122
#
# Disc length: 4071 seconds
#
# Revision: 0
# Processed by: cddbd v1.5.1PL0 Copyright (c) Steve Scherf et al.
# Submitted via: CDex 1.50beta10
#
DISCID=0b0fe513
DTITLE=Various Artist - All Time 75 Salsa and Dance Favourites [CD2)
DYEAR=1991
DGENRE=Salsa
TTITLE0=Deane, Jaymes - Everyody Salsa
TTITLE1=Hornung, Daum - La Bamba
TTITLE2=Makeba, Ragavoy - Pata Pata
TTITLE3=Machuca - La Pajarilla
TTITLE4=Dann, Garcia - Iay Caray
TTITLE5=Trad. - Arena Santa Monica
TTITLE6=Geoff Peacey, Anna Lia Bright - Ja Passou
TTITLE7=Machuca - Te Estas Jorobando
TTITLE8=H. Hildebrandt-Winhauer, Antonio Portela - Outra Vez
TTITLE9=David - Pico Da Tijuca
TTITLE10=Machuca - Papa Upa - El Mesias - El Patillero
TTITLE11=Dann, Morell, Tito - El Chiringuito
TTITLE12=Tradd. Arr. Majer, van Ravenswaay - La Golondrina
TTITLE13=Tradd. Arr. Majer, van Ravenswaay - La Mamadera
TTITLE14=Tradd. Arr. Majer, van Ravenswaay - Cartajanera
TTITLE15=David - Esperito Santo
TTITLE16=Tradd. Arr. Majer, van Ravenswaay - Mentiras
TTITLE17=Machuca - La Plancha
TTITLE18=Trad. - Softwaving with a Tik
EXTD=YEAR: 1991
EXTT0=
EXTT1=
EXTT2=
EXTT3=
EXTT4=
EXTT5=
EXTT6=
EXTT7=
EXTT8=
EXTT9=
EXTT10=
EXTT11=
EXTT12=
EXTT13=
EXTT14=
EXTT15=
EXTT16=
EXTT17=
EXTT18=
PLAYORDER=
